<svg width="1987" height="695" viewBox="0 0 1987 695" fill="none" xmlns="http://www.w3.org/2000/svg">
<g clip-path="url(#clip0_817_54)">
<path d="M194.448 279.206C194.71 281.667 195.613 284.015 197.068 286.016C198.522 288.017 200.477 289.6 202.735 290.606L402.908 367.902C407.217 369.561 408.754 367.691 406.313 363.77L183.721 2.62375C181.31 -1.327 179.533 -0.784137 179.774 3.86025L194.448 279.206Z" fill="#FDBE13"/>
<path d="M196.829 475.658C198.653 477.06 200.813 477.956 203.093 478.258C205.372 478.56 207.691 478.256 209.816 477.377L389.349 391.788C393.236 389.948 392.965 387.716 388.746 386.842L3.73665 306.56C-0.481973 305.716 -1.23529 307.254 2.04921 310.028L196.829 475.658Z" fill="#FDBE13"/>
<path d="M398.539 572.828C400.622 572.285 402.527 571.205 404.065 569.698C405.603 568.19 406.721 566.306 407.308 564.233L445.094 397.246C445.968 393.326 444.19 392.21 441.117 394.803L181.039 613.15C178.026 615.744 178.659 617.222 182.606 616.407L398.539 572.828Z" fill="#FDBE13"/>
<path d="M556.888 545.113C557.587 543.34 557.807 541.415 557.526 539.53C557.246 537.646 556.475 535.868 555.291 534.376L472.395 440.192C470.045 437.508 468.357 438.231 468.598 441.79L486.678 692.105C486.919 695.633 488.335 695.905 489.691 692.648L556.888 545.113Z" fill="#FDBE13"/>
<path d="M254.684 241.72L204.03 267.022C201.872 262.25 198.801 257.947 194.991 254.356C191.427 251.02 187.447 248.162 183.148 245.851C179.035 243.654 174.632 242.05 170.071 241.086C166.107 240.241 162.07 239.787 158.017 239.729C153.981 239.742 149.951 240.065 145.964 240.694C142.076 241.272 138.328 242.56 134.905 244.494C131.507 246.398 128.701 249.205 126.8 252.607C124.519 256.777 123.415 261.489 123.605 266.238C123.808 270.905 125.175 275.446 127.583 279.448C130.597 284.71 135.151 288.921 140.631 291.511C141.685 292.024 142.71 292.597 143.644 293.23C144.606 293.9 145.613 294.505 146.657 295.04L163.291 303.725C168.835 306.741 174.349 309.395 179.894 312.019C181.472 312.99 183.113 313.857 184.806 314.612C186.824 315.577 188.452 316.392 189.778 317.176C192.158 318.292 194.78 319.498 197.702 320.915C200.625 322.333 203.066 323.931 205.175 325.107C212.591 329.288 219.386 334.486 225.365 340.549C230.357 345.716 234.487 351.652 237.599 358.131C240.416 364.178 242.441 370.564 243.625 377.131C244.795 383.457 245.39 389.877 245.403 396.311C245.442 403.72 244.51 411.101 242.631 418.267C240.806 425.278 237.744 431.906 233.591 437.84C228.914 444.349 223.252 450.088 216.807 454.849C208.861 460.633 200.149 465.281 190.923 468.661C188.542 469.506 185.77 470.29 182.606 471.074C179.353 471.88 176.052 472.475 172.722 472.853C169.317 473.245 165.792 473.577 162.266 473.849C158.741 474.12 155.607 474.211 152.955 474.211C149.942 474.211 147.26 474.211 145.241 474.03L139.214 473.637C137.557 473.545 135.907 473.354 134.273 473.065C127.636 472.143 121.085 470.681 114.686 468.692C107.485 466.457 100.537 463.475 93.9546 459.795C86.8897 455.836 80.3155 451.059 74.3681 445.56C67.9784 439.654 62.5763 432.761 58.3675 425.143C57.584 423.876 56.7102 422.338 55.8062 420.649C54.9022 418.96 54.0283 417.302 53.2449 415.703L102.663 390.762H103.808C105.984 395.516 109.053 399.806 112.848 403.399C116.365 406.749 120.355 409.564 124.69 411.753C128.761 413.797 133.074 415.317 137.527 416.276C141.481 417.186 145.523 417.661 149.58 417.694C153.76 417.702 157.933 417.359 162.055 416.668C165.933 416.086 169.678 414.82 173.114 412.929C176.442 411.027 179.232 408.307 181.22 405.027C183.43 400.891 184.472 396.231 184.233 391.546C184.233 380.207 176.469 370.596 160.94 362.715C159.176 361.947 157.456 361.081 155.787 360.121L147.079 355.356C144.066 353.637 140.57 351.888 137.015 350.018C133.459 348.148 130.385 346.61 127.734 345.253L123.394 343.142C121.738 342.272 120.015 341.536 118.242 340.941C115.861 339.583 113.27 338.257 110.528 336.749C107.786 335.241 105.044 333.914 102.452 332.647C95.1373 328.595 88.4987 323.426 82.7752 317.327C73.0545 307.173 66.5177 294.393 63.9722 280.564C62.8078 274.236 62.2129 267.817 62.1944 261.383C62.1944 260.87 62.1944 258.608 62.5861 254.627C62.7915 251.189 63.194 247.766 63.7914 244.373C64.1117 243.252 64.3732 242.114 64.5749 240.966C64.8383 239.565 65.2318 238.192 65.7501 236.864C66.2925 235.507 66.9855 233.848 67.9197 231.707C68.8115 229.642 69.8175 227.628 70.933 225.675C73.357 221.116 76.3991 216.915 79.9729 213.19C83.6466 209.394 87.6056 205.885 91.8151 202.695C95.9042 199.646 100.193 196.876 104.652 194.401C108.659 192.229 112.83 190.373 117.127 188.852C123.287 186.754 129.634 185.249 136.08 184.358C142.366 183.425 148.71 182.952 155.064 182.941C158.078 183.182 160.368 183.393 162.356 183.514C164.345 183.635 166.394 183.846 168.383 183.966C170.372 184.087 172.21 184.147 173.536 184.147C180.159 185.075 186.698 186.528 193.092 188.49C200.334 190.678 207.293 193.715 213.824 197.538C220.875 201.601 227.455 206.436 233.44 211.953C239.742 217.762 245.127 224.493 249.411 231.918C250.094 233.555 250.9 235.137 251.821 236.653C252.846 238.523 253.78 240.061 254.563 241.418" fill="#1C1C1C"/>
<path d="M534.529 281.136C534.598 292.51 532.723 303.811 528.985 314.552C525.42 324.69 520.218 334.176 513.587 342.629C507.083 350.825 499.335 357.948 490.626 363.74C482.042 369.5 472.562 373.791 462.572 376.437C460.221 376.95 456.786 377.704 452.296 378.819C448.548 379.752 444.708 380.268 440.846 380.357H393.417V474.15H333.753V181.976H440.032C442.283 182.004 444.529 182.195 446.752 182.549C449.491 182.943 452.207 183.487 454.888 184.177C457.63 184.811 460.221 185.444 462.542 186.077C464.862 186.711 466.64 187.253 467.694 187.495C475.108 190.291 482.257 193.743 489.059 197.809C496.587 202.575 503.37 208.429 509.187 215.18C514.353 220.66 518.688 226.868 522.054 233.607C525.315 239.936 528.154 246.475 530.552 253.18C531.92 257.707 532.928 262.336 533.565 267.022C534.236 271.738 534.578 276.494 534.59 281.257L534.529 281.136ZM475.619 281.136C475.535 273.022 472.993 265.124 468.327 258.487C465.735 254.882 462.593 251.707 459.016 249.078C455.099 246.239 450.667 244.191 445.968 243.046C444.214 242.521 442.421 242.137 440.605 241.9C438.646 241.659 437.591 241.448 437.26 241.448H393.386V321.398H437.26C438.6 321.292 439.93 321.08 441.238 320.765C443.317 320.373 444.884 320.071 445.968 319.799C450.541 318.782 454.867 316.869 458.699 314.173C462.531 311.477 465.793 308.049 468.297 304.087C472.832 297.305 475.37 289.384 475.619 281.227" fill="#1C1C1C"/>
<path d="M799.941 474.693H733.95L712.585 429.606H612.182L590.878 474.693H525.248L662.805 181.976L799.941 474.693Z" fill="#1C1C1C"/>
<path d="M1044.44 474.663H979.473L929.121 362.775H897.783V474.361H838.119V181.976H944.428C946.449 182.017 948.463 182.208 950.455 182.549C952.956 182.941 955.608 183.453 958.38 184.147C961.152 184.841 963.713 185.444 966.094 186.077C968.474 186.711 970.313 187.374 971.608 187.887C977.711 190.521 983.639 193.543 989.357 196.934C995.614 200.873 1001.29 205.664 1006.23 211.169C1012.22 217.53 1017.24 224.734 1021.15 232.551C1027.16 245.033 1030.36 258.685 1030.52 272.541C1030.32 286.36 1027.13 299.972 1021.18 312.441C1014.97 326.173 1004.07 338.317 988.483 348.872L1044.44 474.663ZM970.915 272.36C970.821 266.729 969.396 261.2 966.757 256.226C963.398 250.22 957.999 245.619 951.54 243.258C949.944 242.667 948.301 242.213 946.628 241.9C944.639 241.538 943.374 241.267 942.861 241.267H897.662V303.424H942.861C944.137 303.271 945.397 303.009 946.628 302.639C948.304 302.22 949.945 301.676 951.54 301.011C958.036 298.944 963.487 294.451 966.757 288.465C969.396 283.501 970.821 277.982 970.915 272.36Z" fill="#1C1C1C"/>
<path d="M1354.69 182.368L1222.71 328.726L1354.3 474.301H1274.08L1182.78 373.451V474.301H1123.12V182.368H1182.78V284.032L1274.48 182.368H1354.69Z" fill="#1C1C1C"/>
<path d="M1754.77 241.719L1704.17 267.022C1701.99 262.263 1698.92 257.964 1695.13 254.356C1691.56 251.013 1687.57 248.153 1683.26 245.851C1679.15 243.65 1674.74 242.046 1670.18 241.086C1666.22 240.241 1662.18 239.787 1658.13 239.729C1654.09 239.739 1650.06 240.062 1646.08 240.694C1642.18 241.271 1638.42 242.559 1634.99 244.494C1631.59 246.397 1628.78 249.205 1626.88 252.607C1624.66 256.794 1623.62 261.505 1623.87 266.238C1624.07 270.9 1625.43 275.439 1627.81 279.448C1630.85 284.697 1635.39 288.903 1640.86 291.511C1641.89 292.035 1642.9 292.609 1643.88 293.23C1644.88 293.912 1645.94 294.517 1647.04 295.039L1663.64 303.725C1669.19 306.62 1674.72 309.385 1680.25 312.019C1681.84 312.989 1683.49 313.856 1685.19 314.612C1687.18 315.577 1688.8 316.392 1690.13 317.176C1692.51 318.292 1695.13 319.498 1698.05 320.915C1700.98 322.333 1703.42 323.931 1705.56 325.107C1712.97 329.28 1719.76 334.478 1725.72 340.549C1730.71 345.723 1734.85 351.658 1737.98 358.131C1740.8 364.178 1742.82 370.564 1744.01 377.131C1745.19 383.455 1745.79 389.876 1745.79 396.311C1745.82 403.717 1744.9 411.097 1743.04 418.267C1741.19 425.268 1738.13 431.892 1734 437.839C1729.32 444.356 1723.65 450.096 1717.19 454.849C1709.25 460.637 1700.53 465.286 1691.31 468.661C1688.92 469.506 1686.15 470.29 1683.02 471.074C1679.76 471.877 1676.44 472.472 1673.1 472.853C1669.7 473.245 1666.2 473.577 1662.65 473.849C1659.09 474.12 1655.99 474.21 1653.37 474.21C1650.35 474.21 1647.64 474.21 1645.65 474.029L1639.63 473.637C1637.98 473.547 1636.34 473.356 1634.72 473.064C1628.07 472.146 1621.51 470.684 1615.1 468.691C1607.9 466.451 1600.95 463.47 1594.37 459.795C1587.31 455.836 1580.75 451.058 1574.81 445.56C1568.42 439.647 1563.01 432.755 1558.78 425.143C1558.03 423.876 1557.15 422.338 1556.22 420.649C1555.28 418.96 1554.44 417.302 1553.69 415.703L1603.08 390.762H1604.25C1606.41 395.522 1609.49 399.815 1613.29 403.399C1616.82 406.736 1620.81 409.549 1625.13 411.752C1629.21 413.792 1633.52 415.312 1637.97 416.276C1641.92 417.184 1645.97 417.659 1650.02 417.694C1654.19 417.76 1658.35 417.478 1662.47 416.849C1666.35 416.267 1670.09 415.001 1673.53 413.11C1676.86 411.207 1679.64 408.488 1681.63 405.208C1683.86 401.078 1684.9 396.413 1684.65 391.727C1684.65 380.388 1676.84 370.797 1661.32 362.896C1659.56 362.121 1657.84 361.255 1656.17 360.302L1647.49 355.537C1644.33 353.818 1640.95 352.069 1637.43 350.199C1633.9 348.329 1630.77 346.791 1628.12 345.434L1623.78 343.323C1622.12 342.448 1620.4 341.711 1618.62 341.122C1616.24 339.764 1613.68 338.437 1610.91 336.929C1608.14 335.422 1605.46 334.095 1602.83 332.828C1595.35 328.836 1588.55 323.686 1582.68 317.568C1577.67 312.296 1573.48 306.31 1570.23 299.805C1567.25 293.798 1565.12 287.403 1563.9 280.805C1562.72 274.479 1562.13 268.059 1562.12 261.624C1562.12 261.111 1562.12 258.849 1562.52 254.869C1562.7 251.43 1563.09 248.005 1563.69 244.615C1563.93 243.8 1564.2 242.685 1564.51 241.207C1564.74 239.804 1565.13 238.429 1565.65 237.105C1566.19 235.748 1566.92 234.089 1567.85 231.948C1568.78 229.807 1569.75 227.877 1570.86 225.916C1573.29 221.358 1576.33 217.156 1579.9 213.431C1583.58 209.642 1587.54 206.134 1591.75 202.936C1595.84 199.881 1600.14 197.11 1604.61 194.642C1608.61 192.465 1612.77 190.61 1617.06 189.093C1623.23 186.992 1629.58 185.487 1636.04 184.599C1642.32 183.665 1648.65 183.192 1654.99 183.182C1658.01 183.423 1660.33 183.634 1662.32 183.755C1664.31 183.876 1666.32 184.087 1668.34 184.207C1670.36 184.328 1672.17 184.388 1673.5 184.388C1680.12 185.314 1686.66 186.766 1693.05 188.731C1700.3 190.92 1707.27 193.957 1713.81 197.779C1720.85 201.85 1727.42 206.685 1733.4 212.194C1739.7 218.01 1745.1 224.74 1749.4 232.159C1750.07 233.796 1750.87 235.379 1751.78 236.894C1752.81 238.764 1753.74 240.302 1754.52 241.659" fill="#1C1C1C"/>
<path d="M1987.03 474.15H1935.65C1934.46 474.09 1933.28 473.969 1932.1 473.788C1930.23 473.517 1928.66 473.275 1927.37 473.004C1922.61 472.22 1918 471.375 1913.54 470.622C1908.52 469.675 1903.61 468.21 1898.89 466.249C1867.83 455.249 1841.29 434.262 1823.41 406.565C1815.7 394.606 1809.9 381.522 1806.2 367.782C1802.72 354.869 1800.92 341.558 1800.87 328.184C1800.87 325.56 1801.14 320.855 1801.65 314.16C1802.14 307.711 1803.07 301.303 1804.42 294.979C1806.56 286.711 1809.39 278.64 1812.89 270.852C1816.89 261.915 1821.73 253.381 1827.36 245.369C1833.32 236.833 1840.07 228.876 1847.51 221.604C1855.22 214.034 1863.85 207.459 1873.19 202.031C1885.1 194.683 1898.21 189.468 1911.91 186.62C1913.19 186.489 1914.45 186.216 1915.68 185.806L1922.4 184.057C1924.87 183.37 1927.39 182.826 1929.93 182.428C1931.92 182.102 1933.94 181.911 1935.96 181.855H1986.94V241.177H1938.73C1937.13 241.403 1935.55 241.746 1934 242.202C1931.34 242.835 1929.24 243.288 1927.67 243.529C1922.23 244.322 1916.96 246.003 1912.06 248.505C1906.11 251.421 1900.48 254.938 1895.25 259C1889.75 263.218 1884.7 267.987 1880.18 273.235C1875.85 278.053 1872.33 283.53 1869.72 289.46C1869.18 290.817 1868.46 292.295 1867.55 294.044C1866.67 295.6 1865.93 297.236 1865.35 298.93C1863.5 303.909 1862.16 309.062 1861.35 314.311C1860.78 318.832 1860.51 323.385 1860.53 327.942C1860.59 335.474 1861.52 342.974 1863.3 350.29C1865.15 358.159 1868.2 365.696 1872.34 372.637C1876.8 380.079 1882.32 386.826 1888.74 392.662C1896.02 399.236 1904.38 404.51 1913.45 408.254C1915.11 409.026 1916.82 409.691 1918.57 410.244C1920.95 411.029 1923.39 411.783 1925.89 412.416C1928.39 413.049 1930.8 413.652 1933.18 414.165C1935.15 414.681 1937.17 414.965 1939.21 415.01H1987.03V474.15Z" fill="#1C1C1C"/>
<path d="M664.191 487.088C663.124 485.238 661.586 483.705 659.733 482.645C657.88 481.586 655.779 481.037 653.645 481.056L553.573 487.54C549.626 487.782 549.083 489.772 552.398 491.974L722.318 604.887C725.633 607.058 726.808 606.003 724.97 602.504L664.191 487.088Z" fill="#FDBE13"/>
<path d="M696.675 409.792C694.895 409.107 692.967 408.896 691.081 409.182C689.195 409.467 687.416 410.239 685.918 411.421L631.919 459.071C629.267 461.423 629.991 463.142 633.546 462.871L782.192 451.682C785.718 451.411 785.959 449.993 782.735 448.666L696.675 409.792Z" fill="#FDBE13"/>
<path d="M666.512 358.432C664.59 358.571 662.739 359.219 661.15 360.311C659.561 361.403 658.292 362.899 657.472 364.645L639.724 408.224C638.398 411.511 639.724 412.717 642.737 410.908L730.123 359.277C733.136 357.467 732.774 356.08 729.219 356.261L666.512 358.432Z" fill="#FDBE13"/>
</g>
<defs>
<clipPath id="clip0_817_54">
<rect width="1987" height="695" fill="white"/>
</clipPath>
</defs>
</svg>
