<svg width="816" height="264" viewBox="0 0 816 264" fill="none" xmlns="http://www.w3.org/2000/svg">
<path d="M66 0.349993V71C66 78.2 63.8 84 59.4 88.4C55 92.8 49.2 95 42 95C34.8 95 29 92.8 24.6 88.4C20.2 84 18 78.2 18 71V0.349993H0V71C0 78.6 1.85 85.6 5.55 92C9.35 98.4 14.45 103.5 20.85 107.3C27.35 111.1 34.4 113 42 113C49.6 113 56.6 111.1 63 107.3C69.5 103.5 74.6 98.4 78.3 92C82.1 85.6 84 78.6 84 71V0.349993H66ZM167.415 113H147.015L111.915 62.9H111.765V113H93.7652V0.499991H136.515C141.615 0.499991 146.315 1.74999 150.615 4.25C155.015 6.74999 158.465 10.15 160.965 14.45C163.465 18.75 164.715 23.45 164.715 28.55C164.715 33.65 163.465 38.35 160.965 42.65C158.465 46.95 155.015 50.35 150.615 52.85C146.315 55.35 141.615 56.6 136.515 56.6H127.665L167.415 113ZM133.515 38.6C142.315 38.6 146.715 35.25 146.715 28.55C146.715 21.85 142.315 18.5 133.515 18.5H111.765V38.6H133.515ZM241.066 51.05C245.966 54.05 249.866 58.05 252.766 63.05C255.766 67.95 257.266 73.35 257.266 79.25C257.266 85.35 255.766 91 252.766 96.2C249.866 101.3 245.866 105.4 240.766 108.5C235.666 111.5 230.066 113 223.966 113H181.216V0.499991H223.966C229.066 0.499991 233.766 1.79999 238.066 4.39999C242.366 6.89999 245.766 10.3 248.266 14.6C250.866 18.9 252.166 23.6 252.166 28.7C252.166 33.2 251.166 37.4 249.166 41.3C247.166 45.2 244.466 48.45 241.066 51.05ZM199.216 42.65H216.466C221.666 42.65 225.916 41.5 229.216 39.2C232.516 36.9 234.166 33.45 234.166 28.85C234.166 24.25 232.516 20.8 229.216 18.5C225.916 16.1 221.666 14.9 216.466 14.9H199.216V42.65ZM216.466 98.9C223.066 98.9 228.516 97.3 232.816 94.1C237.116 90.8 239.266 86.1 239.266 80C239.266 73.8 237.116 69.05 232.816 65.75C228.616 62.35 223.166 60.65 216.466 60.65H199.216V98.9H216.466ZM326.358 0.499991L377.058 113H358.008L338.958 71H302.208L283.308 113H264.258L314.808 0.499991H326.358ZM310.458 53H330.858L320.658 30.35L310.458 53ZM472.199 0.349993H454.199V76.1L402.449 0.349993H388.199V113H406.199V37.25L457.949 112.85L472.199 113V0.349993ZM90.9 151.35H72.9V227.1L21.15 151.35H6.9V264H24.9V188.25L76.65 263.85L90.9 264V151.35ZM188.752 216.6H122.752V246H188.752V264H104.752V151.35H188.752V169.35H122.752V198.6H188.752V216.6ZM205.533 151.5V264H223.533V151.5H205.533ZM347.311 198.6C347.411 199.8 347.461 202.8 347.461 207.6C347.461 217.8 344.911 227.25 339.811 235.95C334.811 244.55 328.011 251.4 319.411 256.5C310.811 261.5 301.411 264 291.211 264C281.011 264 271.611 261.5 263.011 256.5C254.411 251.4 247.561 244.55 242.461 235.95C237.461 227.25 234.961 217.8 234.961 207.6C234.961 197.4 237.461 188 242.461 179.4C247.561 170.8 254.411 164 263.011 159C271.611 153.9 281.011 151.35 291.211 151.35C298.911 151.35 306.161 152.8 312.961 155.7C319.861 158.6 325.911 162.65 331.111 167.85L318.361 180.6C310.861 173.1 301.811 169.35 291.211 169.35C283.911 169.35 277.361 171 271.561 174.3C265.761 177.6 261.211 182.15 257.911 187.95C254.611 193.75 252.961 200.3 252.961 207.6C252.961 215 254.611 221.6 257.911 227.4C261.211 233.2 265.761 237.75 271.561 241.05C277.361 244.35 283.911 246 291.211 246C297.511 246 303.161 244.7 308.161 242.1C313.261 239.5 317.361 236 320.461 231.6C323.561 227.1 325.461 222.1 326.161 216.6H291.211V198.6H347.311ZM423.291 151.5H441.291V264H423.291V216.75H375.291V264H357.291V151.5H375.291V198.6H423.291V151.5ZM514.992 202.05C519.892 205.05 523.792 209.05 526.692 214.05C529.692 218.95 531.192 224.35 531.192 230.25C531.192 236.35 529.692 242 526.692 247.2C523.792 252.3 519.792 256.4 514.692 259.5C509.592 262.5 503.992 264 497.892 264H455.142V151.5H497.892C502.992 151.5 507.692 152.8 511.992 155.4C516.292 157.9 519.692 161.3 522.192 165.6C524.792 169.9 526.092 174.6 526.092 179.7C526.092 184.2 525.092 188.4 523.092 192.3C521.092 196.2 518.392 199.45 514.992 202.05ZM473.142 193.65H490.392C495.592 193.65 499.842 192.5 503.142 190.2C506.442 187.9 508.092 184.45 508.092 179.85C508.092 175.25 506.442 171.8 503.142 169.5C499.842 167.1 495.592 165.9 490.392 165.9H473.142V193.65ZM490.392 249.9C496.992 249.9 502.442 248.3 506.742 245.1C511.042 241.8 513.192 237.1 513.192 231C513.192 224.8 511.042 220.05 506.742 216.75C502.542 213.35 497.092 211.65 490.392 211.65H473.142V249.9H490.392ZM591.584 151.35C601.784 151.35 611.184 153.9 619.784 159C628.384 164 635.184 170.8 640.184 179.4C645.284 188 647.834 197.4 647.834 207.6C647.834 217.8 645.284 227.25 640.184 235.95C635.184 244.55 628.384 251.4 619.784 256.5C611.184 261.5 601.784 264 591.584 264C581.384 264 571.934 261.5 563.234 256.5C554.634 251.4 547.784 244.55 542.684 235.95C537.684 227.25 535.184 217.8 535.184 207.6C535.184 197.4 537.684 188 542.684 179.4C547.784 170.8 554.634 164 563.234 159C571.934 153.9 581.384 151.35 591.584 151.35ZM591.584 246C598.584 246 604.984 244.3 610.784 240.9C616.684 237.5 621.334 232.9 624.734 227.1C628.134 221.2 629.834 214.7 629.834 207.6C629.834 200.6 628.134 194.2 624.734 188.4C621.334 182.5 616.684 177.85 610.784 174.45C604.984 171.05 598.584 169.35 591.584 169.35C584.484 169.35 577.984 171.05 572.084 174.45C566.284 177.85 561.684 182.5 558.284 188.4C554.884 194.2 553.184 200.6 553.184 207.6C553.184 214.7 554.884 221.2 558.284 227.1C561.684 232.9 566.284 237.5 572.084 240.9C577.984 244.3 584.484 246 591.584 246ZM729.095 264H708.695L673.595 213.9H673.445V264H655.445V151.5H698.195C703.295 151.5 707.995 152.75 712.295 155.25C716.695 157.75 720.145 161.15 722.645 165.45C725.145 169.75 726.395 174.45 726.395 179.55C726.395 184.65 725.145 189.35 722.645 193.65C720.145 197.95 716.695 201.35 712.295 203.85C707.995 206.35 703.295 207.6 698.195 207.6H689.345L729.095 264ZM695.195 189.6C703.995 189.6 708.395 186.25 708.395 179.55C708.395 172.85 703.995 169.5 695.195 169.5H673.445V189.6H695.195ZM775.746 151.5C783.446 151.5 790.696 152.95 797.496 155.85C804.396 158.75 810.446 162.8 815.646 168L802.896 180.75C798.896 176.75 794.346 173.8 789.246 171.9C784.746 170.3 780.246 169.5 775.746 169.5C770.846 169.5 765.996 170.45 761.196 172.35L761.046 172.5C759.546 173.1 758.346 174.1 757.446 175.5C756.546 176.9 756.096 178.4 756.096 180C756.096 181.2 756.296 182.25 756.696 183.15C757.496 184.85 758.546 186.15 759.846 187.05H759.996L801.396 213.3C805.196 215.6 808.296 219 810.696 223.5L811.596 225.45C812.896 228.65 813.546 231.95 813.546 235.35C813.546 240.55 812.096 245.4 809.196 249.9C806.296 254.3 802.346 257.6 797.346 259.8C790.546 262.6 783.346 264 775.746 264C768.146 264 760.896 262.55 753.996 259.65C747.196 256.75 741.196 252.7 735.996 247.5L748.746 234.75C752.446 238.65 756.946 241.6 762.246 243.6C766.746 245.2 771.246 246 775.746 246C780.846 246 785.746 245.05 790.446 243.15V243C791.946 242.4 793.146 241.4 794.046 240C795.046 238.6 795.546 237.1 795.546 235.5C795.546 234.3 795.346 233.25 794.946 232.35C794.146 230.55 793.046 229.25 791.646 228.45L750.246 202.2C746.346 199.8 743.246 196.4 740.946 192L740.046 190.05C738.746 186.85 738.096 183.55 738.096 180.15C738.096 174.95 739.546 170.15 742.446 165.75C745.346 161.25 749.296 157.95 754.296 155.85C760.996 152.95 768.146 151.5 775.746 151.5Z" fill="#2D63E0"/>
</svg>
